<svg width="145" height="186" viewBox="0 0 145 186" fill="none" xmlns="http://www.w3.org/2000/svg">
<path d="M83.6867 154.319C98.1745 148.105 108.383 137.444 120.915 129.158C116.33 121.238 111.806 113.562 107.344 105.763C103.86 99.6709 100.131 93.7004 97.0742 87.4252C93.1007 79.2005 93.223 70.7321 97.2576 62.3856C100.62 55.3794 103.86 48.3122 107.161 41.306C107.527 40.514 108.383 40.0266 108.995 39.3564C109.178 40.2703 109.545 41.2451 109.422 42.1589C109.3 43.0728 108.872 44.0476 108.322 44.8396C103.126 51.9676 103.371 59.644 107.099 66.894C112.234 76.8854 117.858 86.6942 123.788 96.2592C128.434 103.753 132.713 111.429 129.656 120.263C126.233 130.194 121.71 139.759 113.946 147.313C106.977 154.137 98.1745 155.477 88.8828 154.868C87.4157 154.929 85.9485 154.624 83.6867 154.319Z" fill="#CC9933"/>
<path d="M77.7571 153.649C81.7917 131.473 74.7618 111.429 69.9325 91.0196C66.5704 76.7635 63.2694 62.4464 60.9464 48.0075C58.9292 35.2135 59.9684 22.3586 65.5312 10.3567C67.2428 6.70123 69.8714 3.47227 72.0721 0.0605469C72.5 0.243318 72.8668 0.426089 73.2947 0.60886C72.8668 2.31472 72.6834 4.08151 71.9498 5.6046C67.4262 14.6213 66.876 23.638 70.2993 33.264C71.7053 37.1631 71.5219 41.6714 71.8887 45.8752C73.1113 60.6187 77.1458 74.6311 81.3027 88.7654C84.1758 98.5132 86.3764 108.444 88.1492 118.435C90.4721 131.29 86.4987 142.805 77.7571 153.649Z" fill="#CC9933"/>
<path d="M92.7951 49.2871C88.9439 46.7283 85.4595 44.5351 82.0974 42.0372C81.4861 41.6107 81.1804 40.0267 81.4861 39.2956C83.0755 35.823 84.8482 32.5331 86.8044 28.7559C90.2888 30.8273 93.5898 32.4722 96.524 34.6655C97.441 35.3356 98.0523 37.6507 97.6244 38.8083C96.3407 42.3418 94.5679 45.5708 92.7951 49.2871Z" fill="#CC9933"/>
<path d="M80.019 24.1256C78.8575 20.2874 77.696 16.632 76.7791 12.9156C76.5345 11.8799 76.9625 10.6005 77.0236 9.44297C77.3292 9.38205 77.696 9.32112 78.0017 9.2602C78.8575 10.2959 79.7133 11.2707 80.5691 12.2455C81.7917 9.0165 83.0143 5.78755 84.2981 2.55859C84.8482 2.68044 85.3984 2.80229 85.8875 2.92414C85.7041 4.20353 85.7652 5.54385 85.3373 6.76233C84.5426 8.89466 83.1977 10.9051 82.5253 13.0984C81.7306 15.7181 81.4861 18.4597 80.9359 21.1403C80.6303 22.3588 80.2023 23.3945 80.019 24.1256Z" fill="#CC9933"/>
<path d="M65.1644 2.31445C58.9292 12.8543 58.1345 24.5516 57.0342 36.3099C53.5498 29.4864 58.5013 8.58959 65.1644 2.31445Z" fill="#CC9933"/>
<path d="M88.6994 156.878C103.309 157.122 106.549 156.391 113.702 151.334C111.868 159.01 97.7466 160.534 88.6994 156.878Z" fill="#CC9933"/>
<path d="M75.0063 38.5029C76.4735 46.9713 77.9406 55.3788 79.4688 64.3955C76.6568 60.2527 73.7226 43.6814 75.0063 38.5029Z" fill="#CC9933"/>
<path d="M39.7955 129.219C31.4207 136.164 23.4739 143.84 11.3701 142.5C20.9675 138.053 30.3815 133.605 39.7955 129.219Z" fill="#CC9933"/>
<path d="M109.911 67.3815C106.183 62.7513 105.327 55.9888 107.833 52.2725C108.567 57.1464 109.239 62.4467 109.911 67.3815Z" fill="#CC9933"/>
<path d="M70.3604 112.769C69.9325 107.103 67.4873 102.839 62.169 100.341C59.0514 98.8788 56.0561 97.2948 52.9384 95.8935C46.7643 92.9692 40.8347 89.8621 35.6998 85.2928C35.333 84.9273 34.7829 84.7445 34.355 84.5008C34.4772 84.318 34.5995 84.1353 34.7217 84.0134C34.844 84.0134 35.0274 84.0134 35.1497 84.0134C36.1277 84.0134 37.1669 84.0743 38.145 83.9525C38.9397 83.8306 39.7344 83.3433 40.5291 83.0386C39.9789 82.4294 39.551 81.5155 38.8786 81.15C34.5384 78.9567 30.0759 76.8244 25.6745 74.6921C24.8187 74.2656 24.2074 74.3875 24.024 75.0576C23.7795 74.9358 23.4739 74.8139 23.2293 74.6921C22.5569 74.3875 22.0067 74.3266 21.7622 74.6921C21.7622 74.6921 21.7622 74.6921 21.7011 74.6921C20.8453 74.2656 20.234 74.3875 20.0506 75.0576C19.8061 74.9358 19.5004 74.8139 19.2559 74.6921C18.1556 74.1438 17.5443 74.4484 17.5443 75.7278C17.5443 78.2257 17.422 80.7845 17.6665 83.2823C17.7277 84.1353 18.5223 85.0491 19.1948 85.7802C20.1117 86.755 21.3954 87.3642 22.129 88.3999C26.8971 94.9187 32.949 99.8536 40.1012 103.57C43.8301 105.519 47.7424 107.164 51.4102 109.175C54.3444 110.759 57.2175 112.587 59.8461 114.597C61.9857 116.181 61.8023 117.704 59.8461 119.471C59.3571 119.897 58.868 120.324 58.379 120.689C47.4368 128.427 36.3111 135.92 24.5131 142.378C21.1509 144.206 17.6054 145.607 13.9376 146.765C12.5316 146.156 11.2479 145.12 10.3921 143.779C9.16947 141.952 8.92496 139.941 8.98608 137.809C9.16947 131.838 10.6977 126.112 12.226 120.385C12.4705 119.471 12.5927 118.618 12.7761 117.704L10.2087 116.364L9.10835 118.679C8.92496 118.984 8.74157 119.349 8.61931 119.654C8.55818 119.776 8.49705 119.897 8.43592 120.019L8.37479 120.141V120.202C8.31366 120.446 8.1914 120.629 8.13027 120.872C8.1914 120.689 8.1914 120.568 8.25253 120.385C8.49705 119.471 8.61931 118.618 8.8027 117.704L6.23524 116.364L5.13491 118.679C4.95152 118.984 4.76813 119.349 4.64587 119.654C4.58474 119.776 4.52361 119.897 4.46248 120.019L4.40135 120.141V120.202C1.6505 126.843 0.0611292 133.727 -0.18339 140.855C-0.30565 144.511 -0.30565 148.166 1.03921 151.639C2.50632 155.416 5.19604 157.609 9.29173 158.097C10.1476 158.218 11.0034 158.218 11.8592 158.097C12.5316 158.157 13.204 158.157 13.8153 158.097C14.4878 158.157 15.1602 158.157 15.7715 158.097C19.1336 158.462 22.0067 157.183 24.8798 155.842C32.8879 152.065 40.2234 147.191 47.4368 142.195C53.3052 138.114 58.9903 133.91 64.5531 129.462C66.2036 128.122 67.6707 126.173 68.4654 124.223C70.1159 120.629 70.7272 116.729 70.3604 112.769Z" fill="#CC9933"/>
<path d="M29.8925 53.3685L34.9663 43.9253L40.6513 53.0639L41.9351 55.1353L46.0308 55.0135L40.3457 45.8749L34.6606 36.7363L29.5257 46.2404L24.4519 55.6836L28.731 55.5618L29.8925 53.3685Z" fill="#CC9933"/>
<path d="M140.232 149.933L139.315 162.788L128.617 155.538L126.172 153.893L121.832 156.025L132.468 163.214L143.166 170.464L144.083 157.609L145 144.815L140.476 147.009L140.232 149.933Z" fill="#CC9933"/>
<path d="M106.427 18.6426C103.371 18.6426 100.925 21.0795 100.925 24.1257C100.925 27.1719 103.371 29.6088 106.427 29.6088C109.484 29.6088 111.929 27.1719 111.929 24.1257C111.929 21.0795 109.484 18.6426 106.427 18.6426ZM106.427 28.0248C104.287 28.0248 102.576 26.319 102.576 24.1866C102.576 22.0543 104.287 20.3484 106.427 20.3484C108.567 20.3484 110.278 22.0543 110.278 24.1866C110.278 26.258 108.567 28.0248 106.427 28.0248Z" fill="#CC9933"/>
<path d="M61.1298 141.403C59.2348 141.403 57.7066 142.926 57.7066 144.815C57.7066 146.704 59.2348 148.227 61.1298 148.227C63.0249 148.227 64.5531 146.704 64.5531 144.815C64.6142 142.926 63.0249 141.403 61.1298 141.403ZM61.1298 147.191C59.785 147.191 58.7458 146.094 58.7458 144.815C58.7458 143.475 59.8461 142.439 61.1298 142.439C62.4747 142.439 63.5139 143.536 63.5139 144.815C63.5139 146.155 62.4747 147.191 61.1298 147.191Z" fill="#CC9933"/>
<path d="M48.2926 186V183.502L57.3398 172.84H49.9431C49.5152 172.84 49.2095 172.718 48.9039 172.414C48.5982 172.109 48.476 171.805 48.476 171.378V170.403H60.5797V172.901L51.5936 183.563H60.3963V186H48.2926Z" fill="#CC9933"/>
<path d="M75.6176 170.403L81.3027 185.939H78.3074L77.207 182.649H70.605C70.2993 183.685 69.8714 184.964 69.5658 185.939H66.5704L71.7665 171.317C72.011 170.769 72.4389 170.403 73.1113 170.403H75.6176ZM73.906 172.657L71.3385 180.456H76.4735L73.906 172.657Z" fill="#CC9933"/>
<path d="M87.3546 186V171.865C87.3546 171.439 87.4768 171.134 87.7825 170.83C88.0881 170.525 88.3938 170.403 88.8217 170.403H93.4676C95.8516 170.403 97.6244 171.013 98.7859 172.292C99.9473 173.632 100.559 175.582 100.559 178.202C100.559 179.603 100.314 180.882 99.8862 181.979C99.3972 183.075 98.7247 183.989 97.9912 184.599C97.3187 185.086 96.5852 185.451 95.8516 185.695C95.1181 185.939 94.0177 186 92.4895 186H87.3546ZM90.1054 183.563H92.9785C94.5679 183.563 95.7294 183.136 96.524 182.283C97.2576 181.491 97.6244 180.151 97.6244 178.202C97.6244 176.374 97.2576 174.973 96.5852 174.12C95.9128 173.267 94.8124 172.779 93.4064 172.779H90.1054V183.563Z" fill="#CC9933"/>
</svg>
