<svg width="29" height="29" viewBox="0 0 29 29" fill="none" xmlns="http://www.w3.org/2000/svg">
<path d="M13.6076 18.6611C11.0344 18.6745 8.55894 17.7193 6.71562 16.0019C4.8723 14.2845 3.80904 11.9426 3.75537 9.48175C3.83806 6.99456 4.92348 4.63439 6.78439 2.89543C8.64529 1.15647 11.1374 0.173576 13.7388 0.152506C16.3403 0.131437 18.8494 1.07384 20.7409 2.78241C22.6323 4.49098 23.7593 6.83321 23.886 9.3187C23.8057 11.8573 22.6809 14.2629 20.7561 16.0124C18.8313 17.7619 16.2623 18.7138 13.6076 18.6611ZM14.0338 16.8024C16.1165 16.8111 18.118 16.0303 19.6003 14.6308C21.0825 13.2313 21.9249 11.3271 21.9429 9.33502C21.9429 5.5035 17.477 1.67196 13.2838 1.93283C11.2355 2.14488 9.33695 3.0594 7.9393 4.50718C6.54166 5.95497 5.73959 7.83801 5.6815 9.80784C5.85568 11.7814 6.82358 13.6133 8.38145 14.9179C9.93932 16.2225 11.9656 16.8981 14.0338 16.8024Z" fill="#201B3D"/>
<path d="M28.9314 28.3133C19.3689 23.9274 9.82346 22.6883 0.346191 28.5578C6.77233 20.9926 20.2894 20.9926 28.9314 28.3133Z" fill="#201B3D"/>
</svg>
