<svg width="27" height="27" viewBox="0 0 27 27" fill="none" xmlns="http://www.w3.org/2000/svg">
<path d="M25.9508 26.4012C24.9292 25.5525 23.877 24.7191 22.901 23.8241C21.9251 22.929 20.9644 21.9876 19.9275 21C18.616 21.571 17.4114 22.1574 16.1609 22.5432C13.6837 23.4659 10.9647 23.4767 8.48037 22.5738C5.99607 21.6708 3.9051 19.9118 2.57402 17.6049C1.2558 15.473 0.689036 12.9525 0.965897 10.4533C1.24276 7.95402 2.34696 5.62307 4.09893 3.83949C6.01363 2.01835 8.46479 0.881609 11.078 0.602945C13.6911 0.32428 16.3226 0.919014 18.5703 2.29628C20.798 3.73663 22.4309 5.94902 23.1634 8.51955C23.896 11.0901 23.678 13.8427 22.5503 16.2623C21.1779 18.9475 21.8851 20.1176 23.7397 21.9722C24.8834 22.9753 25.8441 24.1944 26.8963 25.321L25.9508 26.4012ZM12.0742 21.216C14.559 21.274 16.965 20.3314 18.7635 18.5952C20.562 16.8591 21.6059 14.4714 21.6659 11.9568C21.6639 10.7145 21.4201 9.48476 20.9485 8.33781C20.4769 7.19086 19.7866 6.14915 18.9172 5.27215C18.0478 4.39515 17.0162 3.70004 15.8813 3.22651C14.7464 2.75298 13.5305 2.5103 12.3029 2.51233C9.89787 2.57104 7.59838 3.52389 5.84329 5.18904C4.0882 6.85418 3.00041 9.11503 2.78751 11.5401C2.54353 16.3858 7.05725 21.0771 12.0742 21.216Z" fill="#201B3D"/>
</svg>
