<svg width="36" height="31" viewBox="0 0 36 31" fill="none" xmlns="http://www.w3.org/2000/svg">
<path d="M25.6215 0.0588379C24.2256 0.0604613 22.8449 0.348043 21.5644 0.903844C20.284 1.45965 19.131 2.27188 18.1766 3.29046C16.7779 1.79768 14.9628 0.759855 12.9668 0.311699C10.9709 -0.136458 8.88628 0.0257572 6.98368 0.777285C5.08108 1.52881 3.44833 2.83494 2.29741 4.52611C1.14649 6.21729 0.530548 8.21539 0.529541 10.261C0.529541 20.4191 16.9137 30.3897 17.6251 30.7813C17.7967 30.8843 17.993 30.9388 18.1931 30.9388C18.3933 30.9388 18.5896 30.8843 18.7612 30.7813C19.4395 30.3897 35.8237 20.4191 35.8237 10.261C35.8207 7.55615 34.7449 4.96287 32.8323 3.05022C30.9196 1.13757 28.3263 0.0617574 25.6215 0.0588379ZM18.1766 28.5368C15.3255 26.7169 2.73542 18.2132 2.73542 10.261C2.73684 8.56248 3.27909 6.9085 4.28359 5.5388C5.2881 4.1691 6.70266 3.15484 8.32228 2.64303C9.94189 2.13122 11.6824 2.14844 13.2916 2.69219C14.9008 3.23595 16.295 4.27799 17.2722 5.66729C17.374 5.81181 17.5091 5.92973 17.666 6.01113C17.8229 6.09253 17.9971 6.13502 18.1738 6.13502C18.3506 6.13502 18.5248 6.09253 18.6817 6.01113C18.8386 5.92973 18.9737 5.81181 19.0755 5.66729C20.0519 4.2756 21.4464 3.23131 23.0567 2.68602C24.6669 2.14074 26.409 2.12284 28.0301 2.63492C29.6512 3.14701 31.0669 4.16242 32.0717 5.53376C33.0765 6.90511 33.618 8.56099 33.6178 10.261C33.6178 18.2077 21.0277 26.7114 18.1766 28.5368Z" fill="#201B3D"/>
</svg>
